<svg width="201" height="190" viewBox="0 0 201 190" fill="none" xmlns="http://www.w3.org/2000/svg">
<path d="M100.5 187.743C154.687 187.743 198.613 146.22 198.613 94.9985C198.613 43.7773 154.687 2.25441 100.5 2.25441C46.3134 2.25441 2.38654 43.7773 2.38654 94.9985C2.38654 146.22 46.3134 187.743 100.5 187.743Z" fill="#FF1A1A"/>
<path d="M100.5 166.033C154.687 166.033 198.613 134.23 198.613 94.9985C198.613 55.7672 154.687 23.9639 100.5 23.9639C46.3134 23.9639 2.38654 55.7672 2.38654 94.9985C2.38654 134.23 46.3134 166.033 100.5 166.033Z" fill="#D60909"/>
<path d="M2.38654 94.9985C2.38654 146.225 46.313 187.744 100.5 187.744C154.687 187.744 198.613 146.225 198.613 94.9985H2.38654Z" fill="white"/>
<path d="M100.5 166.033C154.687 166.033 198.613 134.228 198.613 94.9985H2.38654C2.38654 134.228 46.313 166.033 100.5 166.033Z" fill="#D8E5EA"/>
<path d="M100.5 0C45.0832 0 0 42.6159 0 94.9985C0 147.383 45.0832 190 100.5 190C155.917 190 201 147.383 201 94.9985C201 42.6159 155.917 0 100.5 0ZM100.5 4.51185C152.483 4.51185 194.892 43.8898 196.166 92.7426H4.83352C6.10793 43.8898 48.5166 4.51185 100.5 4.51185ZM100.5 185.488C48.5166 185.488 6.10793 146.109 4.83352 97.2544H196.166C194.892 146.109 152.483 185.488 100.5 185.488Z" fill="#33363A"/>
<path d="M100.5 128.786C115.23 128.786 127.172 117.498 127.172 103.574C127.172 89.6497 115.23 78.3618 100.5 78.3618C85.7695 78.3618 73.8281 89.6497 73.8281 103.574C73.8281 117.498 85.7695 128.786 100.5 128.786Z" fill="#A7BBC1"/>
<path d="M100.5 120.212C115.23 120.212 127.172 108.924 127.172 95C127.172 81.0757 115.23 69.7878 100.5 69.7878C85.7695 69.7878 73.8281 81.0757 73.8281 95C73.8281 108.924 85.7695 120.212 100.5 120.212Z" fill="white"/>
<path d="M81.6401 112.828C71.2237 102.981 71.2253 87.02 81.6401 77.1707C92.0565 67.3258 108.944 67.3258 119.358 77.1707" fill="#D8E5EA"/>
<path d="M100.5 122.47C92.739 122.47 85.441 119.612 79.952 114.424C68.6239 103.715 68.6239 86.2891 79.952 75.5765C91.2832 64.8684 109.717 64.8684 121.046 75.5765C126.535 80.7666 129.56 87.6652 129.56 95.0015C129.56 102.338 126.537 109.236 121.046 114.425C115.559 119.612 108.263 122.47 100.5 122.47ZM100.5 72.0542C94.2807 72.0542 88.063 74.2906 83.3281 78.7664C73.8616 87.7194 73.8616 102.284 83.3281 111.234C87.915 115.57 94.0134 117.958 100.5 117.958C106.987 117.958 113.085 115.57 117.67 111.234C122.257 106.898 124.785 101.133 124.785 95.0015C124.785 88.8699 122.259 83.1053 117.67 78.7679C112.939 74.2921 106.719 72.0542 100.5 72.0542Z" fill="#33363A"/>
<path d="M109.575 103.577C104.565 108.308 96.4381 108.308 91.4312 103.577C86.4211 98.8396 86.4227 91.1619 91.4312 86.4275C96.4397 81.69 104.565 81.693 109.574 86.4275C114.584 91.1619 114.584 98.8396 109.575 103.577Z" fill="white"/>
<path d="M91.4312 86.4275C96.4397 81.69 104.565 81.693 109.574 86.4275C114.582 91.1619 114.582 98.8396 109.575 103.577" fill="#D8E5EA"/>
<path d="M100.502 109.375C96.6036 109.375 92.7087 107.975 89.7431 105.173C83.8102 99.563 83.8102 90.4385 89.7431 84.8318C92.6149 82.1142 96.4365 80.6177 100.5 80.6177C104.565 80.6177 108.387 82.1157 111.26 84.8318C117.191 90.437 117.191 99.5615 111.262 105.171C111.262 105.171 111.262 105.173 111.26 105.173C108.294 107.975 104.398 109.375 100.502 109.375ZM100.5 85.1296C97.7109 85.1296 95.0889 86.1568 93.1176 88.0217C89.0462 91.8703 89.0462 98.1327 93.1176 101.981C97.1875 105.827 103.814 105.827 107.887 101.981C111.957 98.1312 111.955 91.8688 107.885 88.0217C105.914 86.1583 103.291 85.1311 100.5 85.1296Z" fill="#33363A"/>
</svg>
