<svg width="38" height="38" viewBox="0 0 38 38" fill="none" xmlns="http://www.w3.org/2000/svg">
<path d="M6.25132 8.29413C5.73696 8.96817 5.37385 9.091 5.37385 8.5206V7.48576C5.37385 6.00181 4.17087 4.79883 2.68692 4.79883C1.20297 4.79883 0 6.00181 0 7.48576V16.6981C0 18.182 1.20297 19.385 2.68692 19.385H11.8992C13.3832 19.385 14.5862 18.182 14.5862 16.6981C14.5862 15.2141 13.3832 14.0111 11.8992 14.0111C11.8992 14.0111 11.4547 14.0111 10.9058 14.0111C10.3569 14.0111 10.2026 13.3839 10.6679 12.6754C12.7805 9.46103 16.4025 7.45889 20.317 7.45889C26.6811 7.45889 31.8585 12.6362 31.8585 19.0004C31.8585 25.3638 26.6811 30.5411 20.317 30.5411C18.6211 30.5411 17.2462 31.916 17.2462 33.6119C17.2462 35.3077 18.6211 36.6826 20.317 36.6826C30.0674 36.6834 38 28.7508 38 19.0011C38 9.25068 30.0674 1.31812 20.317 1.31812C14.7428 1.31735 9.55393 3.96665 6.25132 8.29413Z" fill="#636363"/>
</svg>
